<svg width="284" height="284" viewBox="0 0 284 284" fill="none" xmlns="http://www.w3.org/2000/svg">
<path d="M73.3555 23.1045L210.644 23.1045L279.287 142L210.644 260.896L73.3555 260.896L4.71191 142L73.3555 23.1045Z" stroke="#D2D2D2" stroke-width="8.16092"/>
<path d="M73.3555 23.1045L210.644 23.1045L279.287 142L210.644 260.896L73.3555 260.896L4.71191 142L73.3555 23.1045Z" stroke="#D2D2D2" stroke-width="8.16092"/>
<path d="M75.9072 27.5244L208.092 27.5244L274.185 142L208.092 256.476L75.9072 256.476L9.81445 142L75.9072 27.5244Z" stroke="#D2D2D2" stroke-width="17"/>
<path d="M185 54C211.06 121.827 216.903 158.307 185 230" stroke="#D2D2D2" stroke-width="17"/>
<path d="M96.4363 54C71.2045 122.732 67.2432 161.268 96.4363 230" stroke="#D2D2D2" stroke-width="17"/>
<path d="M76.223 146.733H204.676" stroke="#D2D2D2" stroke-width="17"/>
<path d="M100 66.5C103.5 58 106.167 53.6667 108 52L89 52L100 66.5Z" fill="#D2D2D2"/>
<path d="M88.5 52H89M89 52L108 52C106.167 53.6667 103.5 58 100 66.5L89 52Z" stroke="#D2D2D2" stroke-width="2"/>
<path d="M99.5 218C103 226.5 105.667 230.833 107.5 232.5L88.5 232.5L99.5 218Z" fill="#D2D2D2"/>
<path d="M88 232.5H88.5M88.5 232.5L107.5 232.5C105.667 230.833 103 226.5 99.5 218L88.5 232.5Z" stroke="#D2D2D2" stroke-width="2"/>
<path d="M182 218C178.5 226.5 175.833 230.833 174 232.5H192.399L182 218Z" fill="#D2D2D2"/>
<path d="M193 232.5H192.399M192.399 232.5H174C175.833 230.833 178.5 226.5 182 218L192.399 232.5Z" stroke="#D2D2D2" stroke-width="2"/>
<path d="M182 66.5C178.5 58 175.833 53.6667 174 52L193 52L182 66.5Z" fill="#D2D2D2"/>
<path d="M193.5 52H193M193 52L174 52C175.833 53.6667 178.5 58 182 66.5L193 52Z" stroke="#D2D2D2" stroke-width="2"/>
</svg>
